<svg width="0" height="0" class="hidden">
  <symbol  xmlns="http://www.w3.org/2000/svg" viewBox="0 0 48 49" id="medicine-cosmetic_icons">
    <g clip-path="url(#clip0_64_171)">
      <path d="M13.1079 18.5728H-0.18439C-0.592759 18.5728 -0.922852 18.8895 -0.922852 19.2813V23.5323C-0.922852 23.9241 -0.592759 24.2408 -0.18439 24.2408H0.554072V40.5363C0.554072 40.9281 0.884164 41.2448 1.29253 41.2448H11.631C12.0394 41.2448 12.3695 40.9281 12.3695 40.5363V37.7023V27.0748V24.2408H13.1079C13.5163 24.2408 13.8464 23.9241 13.8464 23.5323V19.2813C13.8464 18.8895 13.5163 18.5728 13.1079 18.5728ZM4.98484 32.0343V30.6173H9.41561V29.2003H4.98484V27.7833H10.8925V36.9938H4.98484V33.4513H6.46176V32.0343H4.98484ZM10.8925 26.3663H4.24638C3.83801 26.3663 3.50792 26.683 3.50792 27.0748V37.7023C3.50792 38.0941 3.83801 38.4108 4.24638 38.4108H10.8925V39.8278H2.03099V24.2408H10.8925V26.3663ZM12.3695 22.8238H11.631H1.29253H0.554072V19.9898H12.3695V22.8238Z" ></path>
      <path d="M22.8926 18.7056V13.5258C22.8926 13.1224 22.5625 12.7963 22.1541 12.7963H21.4157V9.14908H22.8926V7.69019H14.7695V9.14908H19.9388V12.7963H19.2003C18.7919 12.7963 18.4618 13.1224 18.4618 13.5258V18.7056C16.7789 19.0448 15.508 20.5175 15.508 22.2792V23.7381V37.5976V40.5154C15.508 40.9188 15.8381 41.2448 16.2465 41.2448H25.108C25.5164 41.2448 25.8465 40.9188 25.8465 40.5154V37.5976V23.7381V22.2792C25.8465 20.5183 24.5756 19.0448 22.8926 18.7056ZM19.9388 14.2552H21.4157V18.6319H19.9388V14.2552ZM19.2003 20.0908H22.1541C23.3756 20.0908 24.3695 21.0727 24.3695 22.2792V23.0086H16.9849V22.2792C16.9849 21.0727 17.9789 20.0908 19.2003 20.0908ZM24.3695 36.8682H16.9849V35.4093H19.9388V33.9504H16.9849V24.4675H24.3695V36.8682ZM16.9849 39.7859V38.327H24.3695V39.7859H16.9849Z" ></path>
      <path d="M41.7696 17.666H29.308C28.9252 17.666 28.6157 17.9854 28.6157 18.3805V40.5305C28.6157 40.9256 28.9252 41.245 29.308 41.245H41.7696C42.1524 41.245 42.4619 40.9256 42.4619 40.5305V18.3805C42.4619 17.9854 42.1524 17.666 41.7696 17.666ZM41.0773 39.8159H30.0003V19.095H41.0773V39.8159Z" ></path>
      <path d="M10.1543 32.176H8.30811V33.0829H10.1543V32.176Z" ></path>
      <path d="M23.0771 33.9897H21.231V35.8035H23.0771V33.9897Z"></path>
      <path d="M20.7693 32.1761C22.5511 32.1761 24.0001 30.7525 24.0001 29.002C24.0001 27.2515 22.5511 25.8279 20.7693 25.8279C18.9876 25.8279 17.5386 27.2515 17.5386 29.002C17.5386 30.7525 18.9876 32.1761 20.7693 32.1761ZM20.7693 27.4149C21.6602 27.4149 22.3847 28.1267 22.3847 29.002C22.3847 29.8772 21.6602 30.589 20.7693 30.589C19.8785 30.589 19.154 29.8772 19.154 29.002C19.154 28.1267 19.8785 27.4149 20.7693 27.4149Z" ></path>
      <path d="M33.8078 24.9209H37.2694C38.6055 24.9209 39.6925 23.9039 39.6925 22.6537C39.6925 21.4035 38.6055 20.3865 37.2694 20.3865H33.8078C32.4717 20.3865 31.3848 21.4035 31.3848 22.6537C31.3848 23.9039 32.4717 24.9209 33.8078 24.9209ZM38.3078 22.6537C38.3078 23.1894 37.8419 23.6253 37.2694 23.6253H36.2309V21.682H37.2694C37.8419 21.682 38.3078 22.118 38.3078 22.6537ZM33.8078 21.682H34.8463V23.6253H33.8078C33.2353 23.6253 32.7694 23.1894 32.7694 22.6537C32.7694 22.118 33.2353 21.682 33.8078 21.682Z" ></path>
      <path d="M33.8078 32.1759H37.2694C38.6055 32.1759 39.6925 30.9555 39.6925 29.4553C39.6925 27.955 38.6055 26.7346 37.2694 26.7346H33.8078C32.4717 26.7346 31.3848 27.955 31.3848 29.4553C31.3848 30.9555 32.4717 32.1759 33.8078 32.1759ZM38.3078 29.4553C38.3078 30.0981 37.8419 30.6213 37.2694 30.6213H36.2309V28.2893H37.2694C37.8419 28.2893 38.3078 28.8124 38.3078 29.4553ZM33.8078 28.2893H34.8463V30.6213H33.8078C33.2353 30.6213 32.7694 30.0981 32.7694 29.4553C32.7694 28.8124 33.2353 28.2893 33.8078 28.2893Z" ></path>
      <path d="M33.8078 38.5243H37.2694C38.6055 38.5243 39.6925 37.3039 39.6925 35.8037C39.6925 34.3034 38.6055 33.083 37.2694 33.083H33.8078C32.4717 33.083 31.3848 34.3034 31.3848 35.8037C31.3848 37.3039 32.4717 38.5243 33.8078 38.5243ZM38.3078 35.8037C38.3078 36.4465 37.8419 36.9696 37.2694 36.9696H36.2309V34.6377H37.2694C37.8419 34.6377 38.3078 35.1608 38.3078 35.8037ZM33.8078 34.6377H34.8463V36.9696H33.8078C33.2353 36.9696 32.7694 36.4465 32.7694 35.8037C32.7694 35.1608 33.2353 34.6377 33.8078 34.6377Z" ></path>
    </g>
    <defs>
      <clipPath id="clip0_64_171">
        <rect width="48" height="48"  transform="translate(0 0.5)"></rect>
      </clipPath>
     <symbol id="icon-menu" viewBox="0 0 32 32">
      <path d="M29.333 24.007c0 0.733-0.595 1.327-1.327 1.327h-10.68c-0.733 0-1.327-0.594-1.327-1.327s0.594-1.327 1.327-1.327h10.68c0.733 0 1.327 0.593 1.327 1.327zM29.333 16c0 0.733-0.595 1.327-1.327 1.327h-24.013c-0.733 0-1.327-0.594-1.327-1.327s0.594-1.327 1.327-1.327h24.013c0.733 0 1.327 0.595 1.327 1.327zM28.007 9.32c0.733 0 1.327-0.594 1.327-1.327s-0.594-1.327-1.327-1.327h-16.013c-0.733 0-1.327 0.594-1.327 1.327s0.594 1.327 1.327 1.327h16.013z"></path>
    </symbol>
    <symbol id="icon-close" viewBox="0 0 24 24">
      <path stroke-linejoin="miter" stroke-linecap="round" stroke-miterlimit="4" stroke-width="2" d="M9 6l6 6 6-6M9 18l6-6 6 6"></path>
    </symbol>
    </defs>
  </symbol>
  <symbol  xmlns="http://www.w3.org/2000/svg" viewBox="0 0 28 32" id="phone_icon">
    <path d="M25.6549 22.9573L25.4816 22.7413C24.1096 21.0066 22.9629 20.104 21.9789 19.9853C21.1282 19.8693 20.3056 20.4573 19.4309 21.0626L18.4962 21.6466C18.3842 21.7026 18.2736 21.748 18.1696 21.7786C17.6229 21.9333 16.2429 22.024 15.4616 21.3093C14.5522 20.4773 13.1416 18.9546 12.0442 17.624C10.9962 16.2466 9.84423 14.5293 9.2429 13.448C8.7349 12.532 9.16023 11.2506 9.44423 10.776C9.50023 10.6826 9.57357 10.5906 9.6549 10.5L10.4789 9.73865C10.4909 9.72665 10.4962 9.71198 10.5069 9.70131C10.5149 9.69331 10.5282 9.69598 10.5376 9.68931C11.2816 9.06131 12.0509 8.41465 12.1562 7.58398C12.2802 6.60798 11.6736 5.28798 10.2989 3.55465L10.1309 3.33865C9.28023 2.24798 7.99357 0.598646 6.14557 0.870646C5.4189 0.978646 4.76957 1.22665 4.10023 1.64665C4.09357 1.65065 4.08957 1.65865 4.08423 1.66265C4.0789 1.66665 4.07223 1.66665 4.0669 1.67065L3.1349 2.36131C3.12557 2.36665 3.12023 2.37865 3.1109 2.38665C3.10423 2.39331 3.09357 2.39465 3.08557 2.40131C2.97757 2.49198 2.86957 2.58531 2.7629 2.68131C1.81757 3.52398 -0.2291 5.97065 1.1669 10.496C2.06823 13.4186 3.9269 16.8293 6.5549 20.3786L6.52957 20.4L7.9789 22.2053L7.9909 22.196C10.8402 25.5666 13.7402 28.172 16.3976 29.7493C18.1709 30.8026 19.7202 31.1506 20.9949 31.1506C22.6722 31.1506 23.8736 30.548 24.4762 30.156L24.8549 29.9026C24.8976 29.8733 24.9282 29.832 24.9589 29.7946L25.7842 29.1733C25.7936 29.1653 25.7989 29.1546 25.8082 29.1466C25.8122 29.1426 25.8189 29.144 25.8242 29.14C26.4109 28.604 26.8176 28.0426 27.1002 27.3773C27.8322 25.672 26.5216 24.0386 25.6549 22.9573ZM26.1202 26.9586C25.9002 27.476 25.5789 27.916 25.1149 28.3426L23.8869 29.2666C22.7749 29.9893 20.3976 30.8826 16.9442 28.832C14.2869 27.2546 11.3616 24.588 8.4829 21.12L7.70423 20.136C4.99357 16.5413 3.0869 13.0986 2.1869 10.1813C1.01757 6.38798 2.4909 4.35331 3.47757 3.47465C3.57757 3.38398 3.67757 3.29998 3.77623 3.21598L3.78023 3.21198L4.6749 2.54931C5.2189 2.20531 5.7229 2.01331 6.3029 1.92531C7.54157 1.73865 8.54957 3.04531 9.28957 3.99465L9.4629 4.21465C10.9989 6.15198 11.1469 7.07331 11.0989 7.44931C11.0456 7.86665 10.4109 8.40131 9.8509 8.87198L9.77223 8.93865C9.76957 8.94131 9.76823 8.94531 9.76557 8.94798C9.76157 8.95065 9.75757 8.95198 9.75357 8.95465L8.90157 9.74265C8.89623 9.74798 8.89357 9.75465 8.88823 9.76131C8.8829 9.76798 8.87223 9.77065 8.8669 9.77731C8.7349 9.92531 8.62157 10.0733 8.52957 10.2266C8.0509 11.028 7.5989 12.684 8.31223 13.9653C8.9349 15.0853 10.1202 16.8546 11.2096 18.284C12.3482 19.6653 13.8002 21.2333 14.7416 22.0933C15.4469 22.7373 16.4282 22.9533 17.2776 22.9533C17.7322 22.9533 18.1496 22.8906 18.4656 22.8013C18.6322 22.7533 18.8042 22.684 18.9816 22.5973C18.9922 22.592 18.9976 22.5826 19.0082 22.576C19.0136 22.5733 19.0216 22.5746 19.0269 22.5706L20.0162 21.952C20.0482 21.9306 20.0696 21.9026 20.0962 21.876L20.1082 21.8893C20.7176 21.4666 21.4122 20.9706 21.8469 21.0426C22.2322 21.0893 23.1069 21.46 24.6456 23.4026L24.8229 23.6253C25.5722 24.56 26.5989 25.84 26.1202 26.9586Z" ></path>
  </symbol>
  <symbol  xmlns="http://www.w3.org/2000/svg" viewBox="0 0 17 29" id="facebook_icon">
    <path d="M15.9867 1.12809C14.6417 0.985413 13.2899 0.915978 11.9374 0.920095C7.4534 0.920095 4.66673 3.77609 4.66673 8.37343V11.4948H0.900065C0.723254 11.4948 0.553684 11.565 0.42866 11.69C0.303636 11.815 0.233398 11.9846 0.233398 12.1614V17.2948C0.233398 17.4716 0.303636 17.6411 0.42866 17.7662C0.553684 17.8912 0.723254 17.9614 0.900065 17.9614H4.66673V28.2548C4.66673 28.4316 4.73697 28.6011 4.86199 28.7262C4.98702 28.8512 5.15659 28.9214 5.3334 28.9214H10.6374C10.8142 28.9214 10.9838 28.8512 11.1088 28.7262C11.2338 28.6011 11.3041 28.4316 11.3041 28.2548V17.9614H15.0587C15.2206 17.9615 15.3769 17.9027 15.4986 17.796C15.6203 17.6893 15.699 17.5419 15.7201 17.3814L16.3827 12.2481C16.3951 12.154 16.3872 12.0584 16.3596 11.9676C16.332 11.8768 16.2853 11.7929 16.2227 11.7216C16.1601 11.6503 16.083 11.5932 15.9966 11.554C15.9101 11.5149 15.8163 11.4947 15.7214 11.4948H11.3041V8.88276C11.3041 7.58943 11.5641 7.04943 13.1814 7.04943H15.9001C16.0769 7.04943 16.2464 6.97919 16.3715 6.85417C16.4965 6.72914 16.5667 6.55957 16.5667 6.38276V1.78943C16.5668 1.62757 16.508 1.47122 16.4013 1.34953C16.2946 1.22784 16.1472 1.14914 15.9867 1.12809ZM15.2334 5.71476L13.1801 5.71609C10.3041 5.71609 9.97073 7.52409 9.97073 8.88276V12.1628C9.97073 12.3393 10.0408 12.5087 10.1655 12.6337C10.2903 12.7587 10.4595 12.8291 10.6361 12.8294H14.9641L14.4721 16.6294H10.6374C10.4606 16.6294 10.291 16.6997 10.166 16.8247C10.041 16.9497 9.97073 17.1193 9.97073 17.2961V27.5868H6.00006V17.2961C6.00006 17.1193 5.92983 16.9497 5.8048 16.8247C5.67978 16.6997 5.51021 16.6294 5.3334 16.6294H1.56807V12.8294H5.3334C5.51021 12.8294 5.67978 12.7592 5.8048 12.6342C5.92983 12.5091 6.00006 12.3396 6.00006 12.1628V8.37343C6.00006 4.54143 8.22007 2.25343 11.9374 2.25343C13.2827 2.25343 14.4974 2.32676 15.2334 2.39076V5.71476Z" ></path>
  </symbol>
  <symbol  xmlns="http://www.w3.org/2000/svg" viewBox="0 0 26 26" id="instagram_icon">
    <path d="M13 7.25C11.8628 7.25 10.7511 7.58723 9.80547 8.21905C8.85989 8.85087 8.1229 9.74889 7.68769 10.7996C7.25249 11.8502 7.13862 13.0064 7.36049 14.1218C7.58235 15.2372 8.12999 16.2617 8.93414 17.0659C9.73829 17.87 10.7628 18.4177 11.8782 18.6395C12.9936 18.8614 14.1498 18.7475 15.2004 18.3123C16.2511 17.8771 17.1491 17.1401 17.781 16.1945C18.4128 15.2489 18.75 14.1372 18.75 13C18.75 11.475 18.1442 10.0125 17.0659 8.93414C15.9875 7.8558 14.525 7.25 13 7.25ZM13 17.25C12.1594 17.25 11.3377 17.0007 10.6388 16.5337C9.93992 16.0668 9.39519 15.403 9.07351 14.6264C8.75184 13.8498 8.66768 12.9953 8.83166 12.1709C8.99565 11.3464 9.40042 10.5892 9.9948 9.9948C10.5892 9.40042 11.3464 8.99565 12.1709 8.83166C12.9953 8.66768 13.8498 8.75184 14.6264 9.07351C15.403 9.39518 16.0668 9.93992 16.5337 10.6388C17.0007 11.3377 17.25 12.1594 17.25 13C17.2467 14.1262 16.7979 15.2052 16.0016 16.0016C15.2052 16.7979 14.1262 17.2467 13 17.25ZM18.5 0.75H7.5C5.70979 0.75 3.9929 1.46116 2.72703 2.72703C1.46116 3.9929 0.75 5.70979 0.75 7.5V18.5C0.75 20.2902 1.46116 22.0071 2.72703 23.273C3.9929 24.5388 5.70979 25.25 7.5 25.25H18.5C20.2902 25.25 22.0071 24.5388 23.273 23.273C24.5388 22.0071 25.25 20.2902 25.25 18.5V7.5C25.25 5.70979 24.5388 3.9929 23.273 2.72703C22.0071 1.46116 20.2902 0.75 18.5 0.75ZM23.75 18.5C23.75 19.8924 23.1969 21.2277 22.2123 22.2123C21.2277 23.1969 19.8924 23.75 18.5 23.75H7.5C6.10761 23.75 4.77226 23.1969 3.78769 22.2123C2.80312 21.2277 2.25 19.8924 2.25 18.5V7.5C2.25 6.10761 2.80312 4.77225 3.78769 3.78769C4.77226 2.80312 6.10761 2.25 7.5 2.25H18.5C19.8924 2.25 21.2277 2.80312 22.2123 3.78769C23.1969 4.77225 23.75 6.10761 23.75 7.5V18.5ZM20.75 6.5C20.75 6.74723 20.6767 6.9889 20.5393 7.19446C20.402 7.40002 20.2068 7.56024 19.9784 7.65485C19.7499 7.74946 19.4986 7.77421 19.2561 7.72598C19.0137 7.67775 18.7909 7.5587 18.6161 7.38388C18.4413 7.20907 18.3223 6.98634 18.274 6.74386C18.2258 6.50139 18.2505 6.25005 18.3452 6.02165C18.4398 5.79324 18.6 5.59801 18.8055 5.46066C19.0111 5.32331 19.2528 5.25 19.5 5.25C19.8315 5.25 20.1495 5.3817 20.3839 5.61612C20.6183 5.85054 20.75 6.16848 20.75 6.5Z" ></path>
  </symbol>
  <symbol  xmlns="http://www.w3.org/2000/svg" viewBox="0 0 73 37" id="logo">
    <path d="M1.54 0.721999H7.326C8.69 0.721999 9.73867 0.824666 10.472 1.03C11.22 1.22067 11.748 1.536 12.056 1.976C12.364 2.40133 12.518 3.00267 12.518 3.78V5.54C12.518 5.936 12.3567 6.31 12.034 6.662C11.726 7.014 11.3593 7.256 10.934 7.388V7.498C11.4913 7.55667 11.9973 7.79867 12.452 8.224C12.9213 8.63467 13.156 9.09667 13.156 9.61V11.81C13.156 12.9687 12.694 13.79 11.77 14.274C10.846 14.758 9.416 15 7.48 15H1.54V0.721999ZM7.326 6.53C7.86867 6.53 8.272 6.486 8.536 6.398C8.8 6.31 8.976 6.17067 9.064 5.98C9.16667 5.77467 9.218 5.48133 9.218 5.1V4.396C9.218 4.05867 9.174 3.80933 9.086 3.648C8.998 3.472 8.81467 3.34733 8.536 3.274C8.272 3.20067 7.84667 3.164 7.26 3.164H4.972V6.53H7.326ZM7.414 12.558C8.25 12.558 8.844 12.4627 9.196 12.272C9.548 12.0813 9.724 11.7733 9.724 11.348V10.204C9.724 9.676 9.58467 9.302 9.306 9.082C9.042 8.862 8.56533 8.752 7.876 8.752H4.972V12.558H7.414ZM20.7188 15.22C16.9495 15.22 15.0648 14.0687 15.0648 11.766V7.938C15.0648 6.60333 15.4902 5.63533 16.3408 5.034C17.2062 4.43267 18.5335 4.132 20.3228 4.132C22.0095 4.132 23.2415 4.42533 24.0188 5.012C24.8108 5.584 25.2068 6.55933 25.2068 7.938V10.534H18.2988V11.502C18.2988 12.118 18.5188 12.558 18.9588 12.822C19.3988 13.086 20.1908 13.218 21.3348 13.218C22.3908 13.218 23.5788 13.064 24.8988 12.756V14.802C23.5935 15.0807 22.2002 15.22 20.7188 15.22ZM22.1488 8.708V7.168C22.1488 6.816 22.0022 6.552 21.7088 6.376C21.4302 6.2 20.9535 6.112 20.2788 6.112C19.5015 6.112 18.9808 6.2 18.7168 6.376C18.4382 6.56667 18.2988 6.83067 18.2988 7.168V8.708H22.1488ZM30.6759 15.22C29.6786 15.22 28.9306 15.132 28.4319 14.956C27.9479 14.7653 27.6032 14.4353 27.3979 13.966C27.2072 13.482 27.1119 12.7633 27.1119 11.81C27.1119 10.9593 27.2146 10.292 27.4199 9.808C27.6399 9.324 27.9846 8.97933 28.4539 8.774C28.9379 8.554 29.5979 8.444 30.4339 8.444H34.0419V7.718C34.0419 7.26333 33.9759 6.926 33.8439 6.706C33.7266 6.486 33.4992 6.332 33.1619 6.244C32.8392 6.156 32.3479 6.112 31.6879 6.112C30.7786 6.112 29.5319 6.2 27.9479 6.376V4.352C29.1066 4.20533 30.4632 4.132 32.0179 4.132C33.3819 4.132 34.4306 4.23467 35.1639 4.44C35.9119 4.64533 36.4472 4.99733 36.7699 5.496C37.0926 5.99467 37.2539 6.72067 37.2539 7.674V15H34.1079V14.032C33.8586 14.4573 33.5212 14.758 33.0959 14.934C32.6706 15.1247 31.8639 15.22 30.6759 15.22ZM31.9299 13.218C32.5752 13.218 33.0372 13.196 33.3159 13.152C33.5212 13.1227 33.6606 13.0787 33.7339 13.02C33.8219 12.9613 33.8952 12.866 33.9539 12.734C34.0126 12.6313 34.0419 12.4773 34.0419 12.272V10.204H31.8419C31.3432 10.204 30.9912 10.2407 30.7859 10.314C30.5806 10.3727 30.4412 10.5047 30.3679 10.71C30.2946 10.9007 30.2579 11.2453 30.2579 11.744C30.2579 12.228 30.2946 12.5653 30.3679 12.756C30.4412 12.9467 30.5806 13.0713 30.7859 13.13C31.0059 13.1887 31.3872 13.218 31.9299 13.218ZM43.7759 15.22C42.4119 15.22 41.4512 14.978 40.8939 14.494C40.3512 13.9953 40.0799 13.218 40.0799 12.162V4.352H43.2919V11.722C43.2919 12.1327 43.3285 12.4407 43.4019 12.646C43.4899 12.8513 43.6512 12.998 43.8859 13.086C44.1352 13.174 44.5092 13.218 45.0079 13.218C45.6385 13.218 46.1005 13.1813 46.3939 13.108C46.6872 13.02 46.8852 12.8733 46.9879 12.668C47.0905 12.4627 47.1419 12.1473 47.1419 11.722V4.352H50.3539V15H47.1859V13.702C46.9512 14.714 45.8145 15.22 43.7759 15.22ZM58.4879 15.22C57.9452 15.22 57.4905 15.198 57.1239 15.154C56.7572 15.11 56.3905 15.022 56.0239 14.89C55.6132 14.758 55.2759 14.5747 55.0119 14.34C54.7625 14.1053 54.5572 13.7827 54.3959 13.372C54.2199 12.9467 54.1319 12.4553 54.1319 11.898V6.332H51.9759V4.352H54.1319V1.272H57.3439V4.352H60.2699V6.332H57.3439V11.348C57.3439 11.8613 57.3879 12.25 57.4759 12.514C57.5639 12.7633 57.7325 12.9467 57.9819 13.064C58.2312 13.1667 58.6125 13.218 59.1259 13.218C59.3312 13.218 59.7125 13.1813 60.2699 13.108V15.11C59.5805 15.1833 58.9865 15.22 58.4879 15.22ZM65.1368 14.912L60.8908 4.352H64.3888L66.7868 11.876L68.9648 4.352H72.2868L66.4568 19.576H63.2008L65.1368 14.912ZM0.88 33.91L8.316 24.164H1.1V21.722H12.54V23.79L5.104 33.536H12.672V36H0.88V33.91ZM19.9827 36.22C19.3227 36.22 18.78 36.198 18.3547 36.154C17.9294 36.11 17.4747 36.022 16.9907 35.89C16.4627 35.7433 16.0374 35.538 15.7147 35.274C15.392 34.9953 15.1207 34.6067 14.9007 34.108C14.6807 33.624 14.5707 33.0373 14.5707 32.348V29.202C14.5707 28.498 14.6807 27.882 14.9007 27.354C15.1207 26.826 15.4067 26.4153 15.7587 26.122C16.0667 25.8727 16.47 25.6673 16.9687 25.506C17.482 25.33 17.9807 25.22 18.4647 25.176C19.022 25.1467 19.528 25.132 19.9827 25.132C20.6574 25.132 21.1927 25.154 21.5887 25.198C21.9994 25.2273 22.4467 25.3153 22.9307 25.462C23.4587 25.6233 23.884 25.8433 24.2067 26.122C24.544 26.4007 24.83 26.7967 25.0647 27.31C25.2847 27.838 25.3947 28.4687 25.3947 29.202V32.348C25.3947 33.008 25.2847 33.5873 25.0647 34.086C24.8594 34.5847 24.588 34.9733 24.2507 35.252C23.9574 35.5013 23.554 35.7067 23.0407 35.868C22.542 36.0147 22.0507 36.11 21.5667 36.154C21.1267 36.198 20.5987 36.22 19.9827 36.22ZM19.9827 34.218C20.584 34.218 21.0387 34.174 21.3467 34.086C21.6547 33.9833 21.8674 33.8293 21.9847 33.624C22.1167 33.4187 22.1827 33.118 22.1827 32.722V28.696C22.1827 28.1093 22.0287 27.6987 21.7207 27.464C21.4127 27.2293 20.8334 27.112 19.9827 27.112C19.132 27.112 18.5527 27.2293 18.2447 27.464C17.9367 27.6987 17.7827 28.1093 17.7827 28.696V32.722C17.7827 33.118 17.8414 33.4187 17.9587 33.624C18.0907 33.8293 18.3107 33.9833 18.6187 34.086C18.9267 34.174 19.3814 34.218 19.9827 34.218ZM27.8982 25.352H31.0662V26.65C31.3156 25.638 32.4522 25.132 34.4762 25.132C35.8402 25.132 36.7936 25.3813 37.3362 25.88C37.8936 26.364 38.1722 27.134 38.1722 28.19V36H34.9602V28.608C34.9602 28.1973 34.9162 27.8893 34.8282 27.684C34.7549 27.4787 34.5936 27.332 34.3442 27.244C34.1096 27.156 33.7429 27.112 33.2442 27.112C32.6136 27.112 32.1516 27.156 31.8582 27.244C31.5649 27.3173 31.3669 27.4567 31.2642 27.662C31.1616 27.8673 31.1102 28.1827 31.1102 28.608V36H27.8982V25.352ZM46.3282 36.22C42.5589 36.22 40.6742 35.0687 40.6742 32.766V28.938C40.6742 27.6033 41.0996 26.6353 41.9502 26.034C42.8156 25.4327 44.1429 25.132 45.9322 25.132C47.6189 25.132 48.8509 25.4253 49.6282 26.012C50.4202 26.584 50.8162 27.5593 50.8162 28.938V31.534H43.9082V32.502C43.9082 33.118 44.1282 33.558 44.5682 33.822C45.0082 34.086 45.8002 34.218 46.9442 34.218C48.0002 34.218 49.1882 34.064 50.5082 33.756V35.802C49.2029 36.0807 47.8096 36.22 46.3282 36.22ZM47.7582 29.708V28.168C47.7582 27.816 47.6116 27.552 47.3182 27.376C47.0396 27.2 46.5629 27.112 45.8882 27.112C45.1109 27.112 44.5902 27.2 44.3262 27.376C44.0476 27.5667 43.9082 27.8307 43.9082 28.168V29.708H47.7582Z" ></path>
  </symbol>
  <symbol  xmlns="http://www.w3.org/2000/svg" viewBox="0 0 48 48" id="materials-science_icons">
    <path d="M24.0917 2.09946C22.5167 2.09946 21.0457 2.81665 19.7919 3.99105C18.5383 5.16574 17.465 6.80168 16.5704 8.78327C16.3829 9.1984 16.2038 9.62983 16.0326 10.0749C15.571 10.0016 15.1074 9.94138 14.6423 9.8943C14.1014 9.8404 13.5736 9.80693 13.0608 9.79493C11.5214 9.75837 10.1145 9.91446 8.88138 10.2882C7.23738 10.7867 5.88082 11.7023 5.09332 13.0661C4.30582 14.4301 4.19144 16.0627 4.58173 17.7357C4.97219 19.4087 5.85223 21.1561 7.12113 22.9218C7.38738 23.2921 7.67182 23.6635 7.97201 24.0349C7.67833 24.3974 7.39496 24.7682 7.12226 25.1468C5.85326 26.9124 4.97323 28.6598 4.58285 30.3328C4.19248 32.0059 4.30694 33.6385 5.09444 35.0022C5.88194 36.3663 7.23851 37.2818 8.88251 37.78C10.5266 38.2786 12.48 38.3901 14.6434 38.174C15.097 38.1286 15.5603 38.0681 16.0317 37.9938C16.199 38.4301 16.3786 38.8616 16.5704 39.2877C17.465 41.2696 18.5382 42.9053 19.7919 44.0799C21.0456 45.2544 22.5168 45.9717 24.0917 45.9717C25.6665 45.9717 27.1376 45.2544 28.3913 44.0799C29.6449 42.9052 30.7182 41.2695 31.6128 39.2877C31.8046 38.8617 31.9842 38.4302 32.1515 37.994C32.6223 38.068 33.0853 38.1287 33.5385 38.174C35.702 38.39 37.6555 38.2785 39.2994 37.78C40.9436 37.2817 42.3002 36.3661 43.0877 35.0022C43.8752 33.6382 43.9895 32.0058 43.5993 30.3328C43.2088 28.6599 42.3287 26.9125 41.0598 25.1468C40.787 24.7683 40.5036 24.3975 40.21 24.0349C40.5041 23.672 40.7879 23.3009 41.0609 22.9219C42.3298 21.1562 43.2098 19.4088 43.6002 17.7358C43.9906 16.0628 43.8761 14.4302 43.0886 13.0661C42.3011 11.7024 40.9445 10.7868 39.3005 10.2883C38.0675 9.91455 36.6605 9.75846 35.1213 9.79493C34.6082 9.80693 34.0803 9.8404 33.5394 9.8943C33.0857 9.93968 32.6219 10.0005 32.1503 10.0748C31.9832 9.63931 31.8038 9.20864 31.6125 8.78327C30.7178 6.8014 29.6447 5.16546 28.3909 3.99096C27.1372 2.81646 25.6661 2.09937 24.0913 2.09937L24.0917 2.09946ZM24.0917 3.85137C25.1421 3.85137 26.1722 4.3129 27.1935 5.2698C28.2147 6.22652 29.1901 7.67477 30.016 9.50421C30.1503 9.8027 30.278 10.1041 30.3991 10.4082C28.3912 10.8547 26.2647 11.5396 24.0911 12.4548C21.918 11.5398 19.7917 10.8551 17.7843 10.4086C17.9082 10.0983 18.0355 9.79586 18.1673 9.50411C18.9933 7.67458 19.9686 6.22633 20.9899 5.26943C22.0113 4.31271 23.0412 3.85118 24.0918 3.85118L24.0917 3.85137ZM12.5051 11.5442C12.6742 11.5425 12.8461 11.5436 13.0205 11.5476C13.4855 11.5579 13.969 11.5879 14.4683 11.6379C14.7876 11.6697 15.114 11.7105 15.4456 11.7586C14.8281 13.7205 14.3581 15.9044 14.0635 18.2442C12.184 19.6692 10.5274 21.1687 9.13694 22.6845C8.93344 22.4271 8.73567 22.1653 8.54379 21.8991C7.37238 20.2691 6.60598 18.7003 6.28788 17.3374C5.96988 15.9745 6.08538 14.8518 6.61057 13.9421C7.13576 13.0323 8.05057 12.3711 9.38969 11.9651C10.2686 11.6985 11.3209 11.5549 12.505 11.5441L12.5051 11.5442ZM35.6771 11.5442C36.8612 11.555 37.9135 11.6986 38.7924 11.9651C40.1317 12.3711 41.0462 13.0323 41.5714 13.9421C42.0966 14.8518 42.2122 15.9746 41.8942 17.3374C41.5764 18.7002 40.8095 20.2691 39.6383 21.8991C39.4465 22.1653 39.2487 22.4272 39.0453 22.6847C37.655 21.1691 35.9989 19.67 34.12 18.2452C33.8256 15.905 33.355 13.7208 32.7376 11.7586C33.0688 11.7105 33.3948 11.6696 33.7138 11.6379C34.1951 11.5891 34.6781 11.559 35.1617 11.5475C35.3334 11.5436 35.5053 11.5424 35.6771 11.544V11.5442ZM30.9971 12.073C31.463 13.5203 31.8488 15.1172 32.1367 16.8261C31.2066 16.1978 30.2546 15.6026 29.2824 15.0416C28.311 14.4804 27.3201 13.9537 26.3115 13.4625C27.9352 12.8574 29.5109 12.3931 30.9971 12.0731V12.073ZM17.1861 12.0732C18.6721 12.3933 20.2475 12.8576 21.8708 13.4626C20.8622 13.9538 19.8713 14.4805 18.8999 15.0416C17.9282 15.6023 16.9765 16.1972 16.0467 16.8251C16.3345 15.1166 16.7202 13.5202 17.1861 12.0732ZM24.0911 14.3664C25.5168 14.9952 26.9639 15.7261 28.4064 16.559C29.8495 17.3922 31.2067 18.2802 32.4644 19.2009C32.6328 20.7503 32.7233 22.3694 32.7233 24.0356C32.7233 25.7007 32.633 27.3192 32.4648 28.868C31.2071 29.7884 29.8501 30.6762 28.4074 31.5093C26.9646 32.3423 25.5171 33.0734 24.0912 33.7023C22.6651 33.0734 21.2176 32.3423 19.7748 31.5093C18.3324 30.6765 16.9759 29.789 15.7188 28.8689C15.5505 27.3199 15.46 25.7011 15.46 24.0355C15.46 22.3691 15.5505 20.7497 15.7189 19.2001C16.9764 18.2798 18.3332 17.3919 19.7758 16.559C21.2184 15.7262 22.6655 14.9952 24.0911 14.3666V14.3664ZM24.2096 17.0022L19.1938 20.0976L24.2096 23.1932L29.2254 20.0976L24.2096 17.0021V17.0022ZM13.8258 20.6711C13.747 21.7907 13.7077 22.9128 13.708 24.0353C13.708 25.1788 13.7483 26.3014 13.8259 27.3975C12.49 26.2941 11.3 25.1616 10.2797 24.0344C11.3 22.9074 12.4899 21.7747 13.8258 20.6711ZM34.3576 20.672C35.6928 21.7754 36.8825 22.9076 37.9025 24.0345C36.8825 25.1614 35.6928 26.2936 34.3576 27.3968C34.4363 26.278 34.4756 25.1569 34.4753 24.0354C34.4753 22.8912 34.435 21.7685 34.3575 20.672H34.3576ZM18.0638 21.4589V27.5712L23.3316 30.8222V24.7102L18.0638 21.4589ZM30.3505 21.4621L25.0839 24.7124V30.8216L30.3506 27.5712V21.4621H30.3505ZM9.13676 25.3846C10.5274 26.9006 12.1838 28.3996 14.0631 29.8246C14.3575 32.1641 14.8278 34.3479 15.445 36.3098C15.1141 36.3576 14.7882 36.3985 14.4694 36.4304C12.4722 36.6298 10.73 36.5092 9.39082 36.1032C8.05151 35.6973 7.13707 35.0358 6.61179 34.126C6.0866 33.2162 5.97101 32.0935 6.28901 30.7307C6.60701 29.3679 7.37351 27.799 8.54491 26.169C8.73639 25.9032 8.93366 25.6417 9.13676 25.3846ZM39.0453 25.3849C39.2522 25.6474 39.4503 25.909 39.6371 26.169C40.8084 27.7989 41.5749 29.3678 41.8929 30.7306C42.2109 32.0935 42.0956 33.2161 41.5704 34.126C41.045 35.0357 40.1304 35.6972 38.7911 36.1031C37.452 36.5091 35.7101 36.6297 33.7128 36.4303C33.3872 36.3973 33.0622 36.3571 32.7383 36.3099C33.3557 34.3475 33.8258 32.1633 34.1202 29.8233C35.9989 28.3987 37.6551 26.9 39.0453 25.3847L39.0453 25.3849ZM32.1371 31.2427C31.8493 32.9514 31.4636 34.5483 30.9977 35.9955C29.5113 35.6755 27.9355 35.211 26.3117 34.606C27.3205 34.1145 28.3118 33.5877 29.2835 33.0265C30.2555 32.4656 31.2073 31.8706 32.1373 31.2427H32.1371ZM16.0463 31.2436C16.9758 31.8713 17.9271 32.4659 18.8986 33.0265C19.8703 33.5877 20.8616 34.1145 21.8704 34.606C20.2471 35.2109 18.6717 35.6754 17.1855 35.9953C16.7195 34.5484 16.3341 32.9518 16.0463 31.2436ZM24.1435 31.3233L24.2073 31.3627L24.2707 31.3233H24.1436H24.1435ZM24.091 35.614C26.2651 36.529 28.3917 37.2138 30.3998 37.6601C30.2786 37.9651 30.1506 38.2674 30.016 38.5667C29.1901 40.396 28.2147 41.8442 27.1934 42.8011C26.1722 43.7579 25.1421 44.2195 24.0917 44.2195C23.0411 44.2195 22.0111 43.7579 20.9898 42.8011C19.9686 41.8443 18.9933 40.396 18.1673 38.5666C18.0327 38.2673 17.9047 37.965 17.7834 37.66C19.7912 37.2136 21.9176 36.5289 24.0912 35.614H24.091Z" ></path>
  </symbol>
  <symbol  xmlns="http://www.w3.org/2000/svg" viewBox="0 0 48 48" id="crown-light_icons">
    <path d="M44.5311 15.4894C44.1519 15.1457 43.6931 14.9251 43.2063 14.8522C42.7194 14.7793 42.2237 14.8572 41.7748 15.0769L32.3061 19.6969C32.2644 19.722 32.2185 19.7376 32.1712 19.7428C32.1239 19.7481 32.0761 19.7428 32.0307 19.7275C31.9853 19.7121 31.9431 19.6869 31.9067 19.6533C31.8703 19.6197 31.8403 19.5785 31.8186 19.5319L26.2873 8.60069C26.063 8.14882 25.7323 7.77173 25.3298 7.50902C24.9273 7.2463 24.4679 7.10767 23.9998 7.10767C23.5318 7.10767 23.0724 7.2463 22.6699 7.50902C22.2674 7.77173 21.9366 8.14882 21.7123 8.60069L16.1811 19.5319C16.1594 19.5785 16.1294 19.6197 16.093 19.6533C16.0566 19.6869 16.0144 19.7121 15.969 19.7275C15.9235 19.7428 15.8758 19.7481 15.8285 19.7428C15.7812 19.7376 15.7353 19.722 15.6936 19.6969L6.22483 15.0769C5.7775 14.8538 5.28222 14.7732 4.79531 14.8442C4.30839 14.9153 3.84937 15.1352 3.47043 15.479C3.09149 15.8228 2.80785 16.2766 2.65173 16.7889C2.49562 17.3012 2.47331 17.8514 2.58733 18.3769L7.36858 40.7138C7.44956 41.0913 7.59932 41.4468 7.8088 41.7588C8.01829 42.0707 8.28314 42.3327 8.58733 42.5288C8.98807 42.7986 9.44876 42.9413 9.91858 42.9413C10.159 42.9389 10.3983 42.9042 10.6311 42.8382C19.3723 40.1781 28.6052 40.171 37.3498 42.8176C37.6909 42.9259 38.0485 42.9569 38.4008 42.9089C38.7531 42.8608 39.093 42.7347 39.3997 42.538C39.7064 42.3413 39.9737 42.0783 40.1854 41.7647C40.397 41.4512 40.5486 41.0937 40.6311 40.7138L45.3936 18.3769C45.5126 17.8552 45.4947 17.307 45.342 16.796C45.1894 16.2849 44.9082 15.8319 44.5311 15.4894ZM43.2186 17.7994L38.4373 40.1363C38.4117 40.2448 38.3519 40.3398 38.2686 40.4044C38.1755 40.4543 38.07 40.4688 37.9686 40.4457C28.8273 37.668 19.1724 37.668 10.0311 40.4457C9.98181 40.4611 9.93019 40.4652 9.87942 40.4577C9.82864 40.4503 9.77979 40.4315 9.73587 40.4025C9.69195 40.3736 9.65389 40.335 9.62404 40.2892C9.5942 40.2434 9.5732 40.1914 9.56233 40.1363L4.78108 17.7994C4.77018 17.7378 4.7716 17.6742 4.78525 17.6132C4.7989 17.5522 4.82445 17.4952 4.86013 17.4462C4.8958 17.3971 4.94075 17.3572 4.99186 17.3292C5.04296 17.3011 5.099 17.2857 5.15608 17.2838L5.30608 17.3251L14.7936 21.9657C15.3919 22.2621 16.0698 22.2993 16.692 22.0699C17.3142 21.8405 17.8348 21.3613 18.1498 20.7282L23.6811 9.79694C23.7106 9.73179 23.7561 9.67698 23.8124 9.63867C23.8687 9.60037 23.9336 9.58008 23.9998 9.58008C24.066 9.58008 24.1309 9.60037 24.1872 9.63867C24.2435 9.67698 24.289 9.73179 24.3186 9.79694L29.8498 20.7282C30.1649 21.3613 30.6855 21.8405 31.3077 22.0699C31.9298 22.2993 32.6078 22.2621 33.2061 21.9657L42.6936 17.3251C42.7579 17.2937 42.8289 17.2829 42.8985 17.2938C42.9682 17.3048 43.0336 17.3371 43.0873 17.3869C43.1421 17.4353 43.1835 17.4996 43.2067 17.5725C43.2299 17.6454 43.234 17.7241 43.2186 17.7994ZM31.1248 33.4744C31.0929 33.779 30.9609 34.0602 30.7538 34.2653C30.5466 34.4704 30.2785 34.5852 29.9998 34.5882H29.8873C25.9722 34.1551 22.0275 34.1551 18.1123 34.5882C17.8166 34.6229 17.5204 34.5274 17.2885 34.3226C17.0566 34.1177 16.9079 33.8202 16.8748 33.4951C16.8485 33.1676 16.9397 32.8419 17.1289 32.5875C17.3181 32.3331 17.5904 32.1703 17.8873 32.1338C21.9509 31.6594 26.0487 31.6594 30.1123 32.1338C30.4058 32.1703 30.6751 32.3302 30.8638 32.58C31.0525 32.8299 31.1461 33.1504 31.1248 33.4744Z" ></path>
  </symbol>
  <symbol xmlns="http://www.w3.org/2000/svg" id="icon-arrow" viewBox="0 0 36 32">
      <path d="M1.062 17.414a2 2 0 0 1 0-2.828L13.79 1.858a2 2 0 1 1 2.828 2.828L5.304 16l11.314 11.314a2 2 0 1 1-2.828 2.828L1.062 17.414zM36 18H2.476v-4H36v4z"/>
    </symbol>



</svg>